<svg class="board" viewBox="50 50 800 800" xmlns="http://www.w3.org/2000/svg" >
<style>
svg { max-height: 24em; }
.cell { fill: white; stroke: black; stroke-width: 2px; }
.clue { fill: black; font-family: sans-serif; font-size: 24px; }
</style>
<text class="clue" x="140" y="90" text-anchor="middle">23</text>
<text class="clue" x="240" y="90" text-anchor="middle">30</text>
<text class="clue" x="540" y="90" text-anchor="middle">27</text>
<text class="clue" x="640" y="90" text-anchor="middle">12</text>
<text class="clue" x="740" y="90" text-anchor="middle">16</text>
<text class="clue" x="95" y="150" text-anchor="end">16</text>
<rect class="cell" x="100" y="100" width="100" height="100" />
<rect class="cell" x="200" y="100" width="100" height="100" />
<text class="clue" x="440" y="190" text-anchor="middle">17</text>
<text class="clue" x="495" y="150" text-anchor="end">24</text>
<rect class="cell" x="500" y="100" width="100" height="100" />
<rect class="cell" x="600" y="100" width="100" height="100" />
<rect class="cell" x="700" y="100" width="100" height="100" />
<text class="clue" x="95" y="250" text-anchor="end">17</text>
<rect class="cell" x="100" y="200" width="100" height="100" />
<rect class="cell" x="200" y="200" width="100" height="100" />
<text class="clue" x="340" y="290" text-anchor="middle">15</text>
<text class="clue" x="395" y="250" text-anchor="end">29</text>
<rect class="cell" x="400" y="200" width="100" height="100" />
<rect class="cell" x="500" y="200" width="100" height="100" />
<rect class="cell" x="600" y="200" width="100" height="100" />
<rect class="cell" x="700" y="200" width="100" height="100" />
<text class="clue" x="95" y="350" text-anchor="end">35</text>
<rect class="cell" x="100" y="300" width="100" height="100" />
<rect class="cell" x="200" y="300" width="100" height="100" />
<rect class="cell" x="300" y="300" width="100" height="100" />
<rect class="cell" x="400" y="300" width="100" height="100" />
<rect class="cell" x="500" y="300" width="100" height="100" />
<text class="clue" x="640" y="390" text-anchor="middle">12</text>
<text class="clue" x="195" y="450" text-anchor="end">7</text>
<rect class="cell" x="200" y="400" width="100" height="100" />
<rect class="cell" x="300" y="400" width="100" height="100" />
<text class="clue" x="440" y="490" text-anchor="middle">7</text>
<text class="clue" x="495" y="450" text-anchor="end">8</text>
<rect class="cell" x="500" y="400" width="100" height="100" />
<rect class="cell" x="600" y="400" width="100" height="100" />
<text class="clue" x="740" y="490" text-anchor="middle">7</text>
<text class="clue" x="140" y="590" text-anchor="middle">11</text>
<text class="clue" x="240" y="590" text-anchor="middle">10</text>
<text class="clue" x="295" y="550" text-anchor="end">16</text>
<rect class="cell" x="300" y="500" width="100" height="100" />
<rect class="cell" x="400" y="500" width="100" height="100" />
<rect class="cell" x="500" y="500" width="100" height="100" />
<rect class="cell" x="600" y="500" width="100" height="100" />
<rect class="cell" x="700" y="500" width="100" height="100" />
<text class="clue" x="95" y="650" text-anchor="end">21</text>
<rect class="cell" x="100" y="600" width="100" height="100" />
<rect class="cell" x="200" y="600" width="100" height="100" />
<rect class="cell" x="300" y="600" width="100" height="100" />
<rect class="cell" x="400" y="600" width="100" height="100" />
<text class="clue" x="595" y="650" text-anchor="end">5</text>
<rect class="cell" x="600" y="600" width="100" height="100" />
<rect class="cell" x="700" y="600" width="100" height="100" />
<text class="clue" x="95" y="750" text-anchor="end">6</text>
<rect class="cell" x="100" y="700" width="100" height="100" />
<rect class="cell" x="200" y="700" width="100" height="100" />
<rect class="cell" x="300" y="700" width="100" height="100" />
<text class="clue" x="595" y="750" text-anchor="end">3</text>
<rect class="cell" x="600" y="700" width="100" height="100" />
<rect class="cell" x="700" y="700" width="100" height="100" />
</svg>